<?xml version="1.0" encoding="utf-8"?>
<!-- Generator: Adobe Illustrator 28.3.0, SVG Export Plug-In . SVG Version: 6.00 Build 0)  -->
<svg version="1.1" id="Capa_1" xmlns="http://www.w3.org/2000/svg" xmlns:xlink="http://www.w3.org/1999/xlink" x="0px" y="0px"
	 viewBox="0 0 240 154.6" style="enable-background:new 0 0 240 154.6;" xml:space="preserve">
<style type="text/css">
	.st0{fill:#252525;}
	.st1{fill:#FFFFFF;}
</style>
<g>
	<g>
		<path class="st0" d="M34.3,129.2c-1.4,0-2.7-0.4-3.9-1.2c-1.2-0.8-2.1-1.9-2.8-3.2c-0.7-1.4-1-2.9-1-4.7c0-1.8,0.3-3.3,1-4.7
			c0.7-1.4,1.6-2.4,2.8-3.2c1.2-0.8,2.5-1.1,4-1.1c0.9,0,1.6,0.1,2.3,0.4s1.3,0.6,1.9,1c0.5,0.4,1,0.9,1.4,1.5s0.6,1.2,0.8,1.8
			l-1-0.2v-4.2h4.6v17.4h-4.7v-4.2l1.1-0.1c-0.2,0.6-0.5,1.2-0.9,1.7s-0.9,1-1.5,1.5c-0.6,0.4-1.2,0.8-2,1
			C35.9,129.1,35.1,129.2,34.3,129.2z M35.6,125.2c0.9,0,1.6-0.2,2.3-0.6s1.2-1,1.5-1.8c0.4-0.8,0.5-1.6,0.5-2.6s-0.2-1.9-0.5-2.6
			c-0.4-0.7-0.9-1.3-1.5-1.8c-0.7-0.4-1.4-0.6-2.3-0.6c-0.9,0-1.6,0.2-2.3,0.6c-0.6,0.4-1.2,1-1.5,1.8c-0.4,0.7-0.6,1.6-0.6,2.6
			s0.2,1.9,0.6,2.6c0.4,0.8,0.9,1.3,1.5,1.8C34,125,34.7,125.2,35.6,125.2z"/>
		<path class="st0" d="M49.2,128.9v-17.4h4.5l0.1,3.5l-0.9,0.4c0.2-0.8,0.7-1.5,1.3-2.2c0.6-0.6,1.4-1.2,2.3-1.6
			c0.9-0.4,1.8-0.6,2.8-0.6c1.3,0,2.4,0.3,3.3,0.8c0.9,0.5,1.6,1.3,2,2.4c0.4,1.1,0.7,2.4,0.7,3.9v10.6h-4.7v-10.3
			c0-0.8-0.1-1.4-0.3-2c-0.2-0.5-0.6-0.9-1-1.1s-1-0.3-1.7-0.3c-0.5,0-1,0.1-1.5,0.2c-0.4,0.2-0.8,0.4-1.1,0.7
			c-0.3,0.3-0.6,0.7-0.8,1.1s-0.3,0.8-0.3,1.3v10.4h-2.3c-0.5,0-1,0-1.3,0C49.8,128.9,49.5,128.9,49.2,128.9z"/>
		<path class="st0" d="M76.4,129.2c-1.5,0-2.9-0.4-4.1-1.2s-2.1-1.8-2.8-3.2s-1-2.9-1-4.7c0-1.7,0.3-3.3,1-4.6s1.6-2.4,2.8-3.2
			c1.2-0.8,2.6-1.2,4.1-1.2c0.8,0,1.6,0.1,2.3,0.4c0.8,0.3,1.4,0.6,2,1s1.1,0.9,1.5,1.5c0.4,0.5,0.6,1.1,0.6,1.7l-1.2,0.2v-11.3h4.7
			v24.3H82l-0.2-4l0.9,0.1c0,0.5-0.2,1.1-0.6,1.6s-0.8,1-1.4,1.4s-1.2,0.7-2,1C78,129.1,77.2,129.2,76.4,129.2z M77.5,125.3
			c0.9,0,1.6-0.2,2.3-0.7c0.7-0.4,1.2-1,1.5-1.8c0.4-0.8,0.6-1.7,0.6-2.7s-0.2-1.9-0.6-2.7c-0.4-0.8-0.9-1.4-1.5-1.8
			c-0.7-0.4-1.4-0.7-2.3-0.7s-1.6,0.2-2.3,0.7c-0.6,0.4-1.1,1-1.5,1.8s-0.5,1.7-0.5,2.7s0.2,1.9,0.5,2.7c0.4,0.8,0.9,1.4,1.5,1.8
			C75.8,125.1,76.6,125.3,77.5,125.3z"/>
		<path class="st0" d="M93.3,136.4l3.8-8.9l0.1,2.7l-8.5-18.7H94l4.2,10c0.2,0.4,0.3,0.8,0.5,1.3s0.3,1,0.4,1.4l-0.8,0.4
			c0.2-0.4,0.3-0.8,0.5-1.3s0.3-1,0.5-1.5l3.6-10.2h5.3l-7.3,17.4l-3,7.6h-4.6V136.4z"/>
		<path class="st0" d="M126.4,128.9l-7.3-17.4h5.1l4.6,13l-1.1,0.2l4.9-13.2h5l-7.7,17.4H126.4z"/>
		<path class="st0" d="M143.2,108c-0.9,0-1.6-0.2-2.1-0.7c-0.5-0.4-0.8-1.1-0.8-1.9c0-0.7,0.3-1.4,0.8-1.8c0.5-0.5,1.2-0.7,2.1-0.7
			c0.9,0,1.6,0.2,2.1,0.7c0.5,0.4,0.8,1.1,0.8,1.9c0,0.7-0.3,1.4-0.8,1.8C144.7,107.7,144,108,143.2,108z M140.9,128.9v-17.4h4.7
			v17.4H140.9z"/>
		<path class="st0" d="M156.4,129.2c-1.6,0-3.1-0.3-4.3-0.8c-1.3-0.5-2.3-1.3-3-2.2l2.9-2.5c0.7,0.7,1.4,1.2,2.2,1.6
			c0.8,0.3,1.7,0.5,2.5,0.5c0.3,0,0.6,0,0.9-0.1s0.5-0.2,0.7-0.3c0.2-0.1,0.3-0.3,0.4-0.5c0.1-0.2,0.1-0.4,0.1-0.7
			c0-0.5-0.2-0.9-0.6-1.1c-0.2-0.1-0.6-0.3-1-0.4c-0.5-0.2-1.1-0.3-1.8-0.5c-1.1-0.3-2.1-0.6-2.8-1c-0.8-0.4-1.4-0.8-1.9-1.3
			c-0.4-0.5-0.7-1-0.9-1.5s-0.3-1.1-0.3-1.8c0-0.8,0.2-1.5,0.5-2.2c0.3-0.6,0.8-1.2,1.5-1.7c0.6-0.5,1.3-0.8,2.2-1.1
			c0.8-0.3,1.7-0.4,2.6-0.4c0.9,0,1.8,0.1,2.6,0.3c0.9,0.2,1.6,0.5,2.4,0.9c0.7,0.4,1.4,0.9,1.9,1.4l-2.5,2.8
			c-0.4-0.4-0.8-0.7-1.3-1s-1-0.5-1.5-0.7s-1-0.3-1.4-0.3s-0.7,0-1,0.1s-0.5,0.2-0.7,0.3c-0.2,0.1-0.3,0.3-0.4,0.5
			c-0.1,0.2-0.1,0.4-0.1,0.7c0,0.2,0.1,0.5,0.2,0.7c0.1,0.2,0.3,0.4,0.5,0.6c0.2,0.1,0.6,0.3,1.1,0.5s1.1,0.4,1.9,0.6
			c1.1,0.3,1.9,0.6,2.7,1c0.7,0.4,1.3,0.8,1.8,1.2c0.4,0.4,0.6,0.8,0.8,1.3s0.3,1.1,0.3,1.7c0,1.1-0.3,2-0.9,2.9
			c-0.6,0.8-1.4,1.5-2.5,2C158.9,129,157.7,129.2,156.4,129.2z"/>
		<path class="st0" d="M172.6,129.2c-1.3,0-2.4-0.3-3.3-0.8c-0.9-0.6-1.6-1.4-2.1-2.4s-0.7-2.3-0.7-3.8v-10.7h4.7v10
			c0,0.8,0.1,1.5,0.4,2.1c0.3,0.6,0.6,1,1.1,1.3s1.1,0.5,1.8,0.5c0.5,0,1-0.1,1.4-0.2c0.4-0.2,0.8-0.4,1.1-0.7
			c0.3-0.3,0.6-0.7,0.7-1.1c0.2-0.4,0.3-0.9,0.3-1.3v-10.4h4.7v17.4h-4.4l-0.2-3.6l0.9-0.4c-0.3,0.8-0.7,1.5-1.3,2.2
			s-1.3,1.2-2.2,1.5C174.5,129,173.6,129.2,172.6,129.2z"/>
		<path class="st0" d="M193.8,129.2c-1.4,0-2.7-0.4-3.9-1.2s-2.1-1.9-2.8-3.2c-0.7-1.4-1-2.9-1-4.7c0-1.8,0.3-3.3,1-4.7
			c0.7-1.4,1.6-2.4,2.8-3.2c1.2-0.8,2.5-1.1,4-1.1c0.9,0,1.6,0.1,2.3,0.4s1.3,0.6,1.9,1c0.5,0.4,1,0.9,1.4,1.5s0.6,1.2,0.8,1.8
			l-1-0.2v-4.2h4.6v17.4h-4.7v-4.2l1.1-0.1c-0.2,0.6-0.5,1.2-0.9,1.7s-0.9,1-1.5,1.5c-0.6,0.4-1.2,0.8-2,1
			C195.4,129.1,194.6,129.2,193.8,129.2z M195.1,125.2c0.9,0,1.6-0.2,2.3-0.6s1.2-1,1.5-1.8c0.4-0.8,0.5-1.6,0.5-2.6
			s-0.2-1.9-0.5-2.6c-0.4-0.7-0.9-1.3-1.5-1.8c-0.7-0.4-1.4-0.6-2.3-0.6c-0.9,0-1.6,0.2-2.3,0.6c-0.6,0.4-1.2,1-1.5,1.8
			c-0.4,0.7-0.6,1.6-0.6,2.6s0.2,1.9,0.6,2.6c0.4,0.8,0.9,1.3,1.5,1.8C193.5,125,194.2,125.2,195.1,125.2z"/>
		<path class="st0" d="M208.7,128.9v-24.3h4.7v24.3H208.7z"/>
	</g>
	<circle class="st1" cx="123.2" cy="58.6" r="40.4"/>
	<g>
		<path class="st0" d="M104.4,40.1h-7.1L96.4,63l-0.5,14h7.9l0.1-7.8h14.5L124,77h7.1L104.4,40.1z M104,63.1l0.2-13.4l9.8,13.4H104z
			"/>
		<polygon class="st0" points="115.5,40.1 142.3,77 150.1,77 150.9,40.1 143.7,40.1 142.7,66.1 125.1,40.1 		"/>
	</g>
</g>
</svg>
