<?xml version="1.0" encoding="utf-8"?>
<!-- Generator: Adobe Illustrator 28.1.0, SVG Export Plug-In . SVG Version: 6.00 Build 0)  -->
<svg version="1.1" id="Capa_1" xmlns="http://www.w3.org/2000/svg" xmlns:xlink="http://www.w3.org/1999/xlink" x="0px" y="0px"
	 viewBox="0 0 68.4 77" style="enable-background:new 0 0 68.4 77;" xml:space="preserve">
<style type="text/css">
	.st0{display:none;}
	.st1{display:inline;fill:#E44D26;}
	.st2{display:inline;fill:#FF6C39;}
	.st3{display:inline;fill:#FFFFFF;}
	.st4{fill:#264DE4;}
	.st5{fill:#2965F1;}
	.st6{fill:#EBEBEB;}
	.st7{fill:#FFFFFF;}
</style>
<g class="st0">
	<polygon class="st1" points="61.6,69.5 34.2,77 6.8,69.5 0.5,0 67.9,0 	"/>
	<polygon class="st2" points="34.2,4.8 34.2,71.6 56.4,65 62.3,4.8 	"/>
	<polygon class="st3" points="54.3,14.4 14,14.4 15,24.1 16.5,40.9 42.6,40.9 41.8,50.5 34.2,52.9 26.7,50.5 26.1,45.7 16.9,45.7 
		18,57.7 34.2,62.5 50.4,57.7 52.8,31.3 25.2,31.3 24.6,24.1 53.5,24.1 	"/>
</g>
<g id="layer1" transform="translate(-193.633,-276.3622)">
	<g id="g3013" transform="translate(119,276.3622)">
		<polygon id="polygon2989" class="st4" points="143.1,0 136.9,69.3 109.1,77 81.3,69.3 75.2,0 		"/>
		<polygon id="polygon2991" class="st5" points="131.6,64.9 136.9,5.7 109.1,5.7 109.1,71.1 		"/>
		<polygon id="polygon2993" class="st6" points="89.3,31.4 90.1,39.9 109.1,39.9 109.1,31.4 		"/>
		<polygon id="polygon2995" class="st6" points="109.1,14.2 109.1,14.2 87.8,14.2 88.6,22.7 109.1,22.7 		"/>
		<polygon id="polygon2997" class="st6" points="109.1,62.3 109.1,53.4 109.1,53.5 99.6,50.9 99,44.1 94.4,44.1 90.5,44.1 
			91.7,57.5 109.1,62.3 		"/>
		<polygon id="polygon3005" class="st7" points="119.5,39.9 118.6,50.9 109.1,53.5 109.1,62.3 126.5,57.5 126.6,56 128.6,33.7 
			128.8,31.4 130.4,14.2 109.1,14.2 109.1,22.7 121.1,22.7 120.3,31.4 109.1,31.4 109.1,39.9 		"/>
	</g>
</g>
</svg>
